<?xml version="1.0" encoding="UTF-8"?>
<svg width="24px" height="34px" viewBox="0 0 24 30" version="1.1" xmlns="http://www.w3.org/2000/svg" xmlns:xlink="http://www.w3.org/1999/xlink">
    <g id="Page-1" stroke="none" stroke-width="1" fill="none" fill-rule="evenodd">
        <g fill="#2EE392">
            <path d="M19.76,8.28 L14.2,12.28 L16.32,18.81 C16.3933621,19.0129164 16.3191358,19.2397192 16.14,19.36 C16.0576225,19.4255326 15.9552611,19.4608297 15.85,19.46 C15.7416965,19.4607376 15.6362002,19.4255722 15.55,19.36 L10,15.36 L4.45,19.36 C4.27537165,19.4916693 4.03462835,19.4916693 3.86,19.36 C3.68086424,19.2397192 3.60663788,19.0129164 3.68,18.81 L5.8,12.32 L0.24,8.32 C0.0700433734,8.18846449 -0.00148625688,7.96592786 0.06,7.76 C0.131941035,7.55651911 0.324176319,7.42035245 0.54,7.42 L7.4,7.42 L9.52,0.89 C9.58377295,0.666750027 9.78782003,0.512828569 10.02,0.512828569 C10.25218,0.512828569 10.4562271,0.666750027 10.52,0.89 L12.6,7.38 L19.46,7.38 C19.6758237,7.38035245 19.868059,7.51651911 19.94,7.72 C20.0014863,7.92592786 19.9299566,8.14846449 19.76,8.28 Z" id="Path"></path>
        </g>
    </g>
</svg>
